<svg xmlns="http://www.w3.org/2000/svg" width="1600" height="920" viewBox="0 0 1600 920">
<defs><linearGradient id="room" x1="0" x2="1"><stop stop-color="#f7ead7"/><stop offset=".45" stop-color="#d7b27f"/><stop offset="1" stop-color="#6d3a20"/></linearGradient><pattern id="rug" width="120" height="120" patternUnits="userSpaceOnUse"><rect width="120" height="120" fill="#081827"/><path d="M60 8 112 60 60 112 8 60Z" fill="#7d1018" stroke="#d5aa62" stroke-width="5"/><circle cx="60" cy="60" r="20" fill="#d8b36a"/><path d="M0 0h120v120H0z" fill="none" stroke="#eed3a3" stroke-width="8"/></pattern><linearGradient id="fade" x1="0" x2="1"><stop stop-color="#fffaf2" stop-opacity=".92"/><stop offset=".55" stop-color="#fffaf2" stop-opacity=".25"/><stop offset="1" stop-color="#fffaf2" stop-opacity="0"/></linearGradient></defs><rect width="1600" height="920" fill="url(#room)"/><rect x="0" y="0" width="1600" height="920" fill="#fff6e8" opacity=".15"/><rect x="830" y="80" width="250" height="360" fill="#6d3a20" opacity=".5"/><rect x="1130" y="100" width="270" height="260" rx="20" fill="#402010" opacity=".45"/><circle cx="1040" cy="380" r="80" fill="#70401e" opacity=".75"/><rect x="560" y="360" width="1000" height="470" rx="18" fill="url(#rug)" transform="skewX(-12) rotate(-3 1000 600)"/><rect x="530" y="330" width="1060" height="530" rx="22" fill="none" stroke="#d2aa62" stroke-width="18" transform="skewX(-12) rotate(-3 1000 600)"/><rect width="900" height="920" fill="url(#fade)"/></svg>