<svg xmlns="http://www.w3.org/2000/svg" width="1400" height="900" viewBox="0 0 1400 900">
<defs>
<linearGradient id="bg" x1="0" x2="1"><stop stop-color="#8b1e2d"/><stop offset=".45" stop-color="#1d3557"/><stop offset="1" stop-color="#163b2e"/></linearGradient>
<pattern id="p" width="90" height="90" patternUnits="userSpaceOnUse"><path d="M45 5 L85 45 L45 85 L5 45 Z" fill="none" stroke="#f1cf75" stroke-width="4"/><circle cx="45" cy="45" r="8" fill="#f1cf75"/></pattern>
</defs>
<rect width="1400" height="900" fill="url(#bg)"/>
<rect x="80" y="80" width="1240" height="740" rx="42" fill="#8b1e2d" stroke="#f8e8b0" stroke-width="18"/>
<rect x="150" y="150" width="1100" height="600" rx="24" fill="#fff3d4"/>
<rect x="190" y="190" width="1020" height="520" rx="16" fill="#1d3557"/>
<rect x="220" y="220" width="960" height="460" fill="url(#p)" opacity=".9"/>
<circle cx="700" cy="450" r="145" fill="#8b1e2d" stroke="#f8e8b0" stroke-width="14"/>
<path d="M700 285 L743 407 L872 407 L768 482 L808 605 L700 529 L592 605 L632 482 L528 407 L657 407 Z" fill="#f8e8b0"/>
<text x="700" y="850" text-anchor="middle" fill="#fff8ee" font-size="48" font-family="Georgia,serif">Handmade Persian Rugs</text>
</svg>